<?xml version="1.0" standalone="no"?>
<!DOCTYPE svg PUBLIC "-//W3C//DTD SVG 20010904//EN"
 "http://www.w3.org/TR/2001/REC-SVG-20010904/DTD/svg10.dtd">
<svg version="1.0" xmlns="http://www.w3.org/2000/svg"
 width="300.000000pt" height="300.000000pt" viewBox="0 0 300.000000 300.000000"
 preserveAspectRatio="xMidYMid meet">
<metadata>
Created by potrace 1.14, written by Peter Selinger 2001-2017
</metadata>
<g transform="translate(0.000000,300.000000) scale(0.100000,-0.100000)"
fill="#000000" stroke="none">
<path d="M0 2975 c0 -14 5 -25 10 -25 7 0 7 -6 0 -19 -5 -11 -10 -39 -10 -62
0 -33 6 -49 27 -72 23 -23 24 -27 8 -21 -20 7 -20 7 0 -16 l20 -23 -22 12
c-12 6 -24 11 -27 11 -3 0 -6 -47 -6 -105 0 -58 2 -105 5 -105 4 0 19 7 35 15
33 17 49 42 51 77 1 21 2 21 7 3 4 -17 7 -14 18 15 l12 35 1 -36 c1 -48 47
-92 96 -93 39 -1 40 -3 20 -30 -24 -31 -19 -89 10 -120 13 -14 20 -26 14 -26
-41 0 -136 91 -146 140 -6 31 -23 42 -23 15 0 -27 -38 -92 -70 -118 l-30 -26
0 -412 c0 -365 2 -411 15 -393 8 10 15 27 15 37 0 11 5 15 11 11 7 -4 10 -26
7 -58 l-5 -51 16 35 c11 25 15 69 16 158 l0 124 27 -84 c15 -45 30 -108 33
-138 11 -96 21 -101 28 -14 8 85 43 222 77 295 11 24 18 36 15 25 -3 -10 -10
-48 -16 -85 -12 -72 -1 -176 26 -236 l13 -30 -5 40 c-3 22 0 56 5 75 l10 35 1
-30 c2 -51 51 -95 106 -95 25 0 25 0 10 -30 -24 -47 -19 -87 15 -121 27 -27
27 -30 7 -24 -12 4 -34 15 -49 26 -40 28 -46 23 -12 -12 48 -50 142 -107 211
-129 79 -24 199 -26 269 -5 27 8 51 15 53 15 2 0 -20 -26 -50 -57 -87 -92
-119 -156 -139 -276 -11 -69 1 -178 25 -229 14 -30 15 -31 10 -6 -3 15 -2 47
2 70 l6 43 11 -39 c13 -47 54 -80 100 -80 l34 0 -21 -27 c-25 -34 -18 -91 14
-125 29 -31 15 -30 -41 2 l-45 25 35 -36 c45 -48 111 -93 169 -117 l46 -19
-45 5 c-62 7 -190 50 -280 94 -199 98 -388 293 -480 496 -39 86 -79 228 -87
311 l-7 70 -13 -103 c-15 -116 -68 -289 -113 -371 l-30 -54 0 -454 0 -453 520
0 c501 0 522 1 560 20 50 26 64 26 25 0 l-30 -20 210 0 211 0 69 70 c143 144
341 251 536 289 96 19 -19 11 -141 -10 -159 -27 -339 -77 -465 -129 -128 -53
-135 -55 -106 -34 147 110 192 145 273 217 129 116 323 344 383 451 16 29 15
29 -11 -4 -51 -65 -169 -176 -232 -219 -127 -86 -318 -160 -452 -174 l-55 -6
40 13 c87 28 185 93 231 153 l28 37 -34 -26 c-19 -14 -46 -29 -59 -33 l-24 -7
21 27 c24 30 29 92 12 126 -9 16 -7 19 15 19 56 0 104 42 106 92 0 23 0 23 10
-2 6 -14 8 -42 6 -63 -7 -52 1 -41 19 24 42 159 -5 336 -122 457 -28 29 -44
50 -35 47 197 -77 426 -21 557 135 l29 33 -40 -25 c-22 -15 -51 -29 -65 -33
-21 -5 -22 -4 -7 5 21 14 47 62 47 90 0 12 -7 34 -15 49 -13 27 -13 29 4 24
35 -9 91 24 109 64 l16 38 6 -50 6 -50 13 55 c8 33 12 93 10 148 -5 107 3 99
43 -50 20 -71 23 -108 23 -253 0 -168 -6 -207 -50 -351 -16 -51 37 63 70 151
51 137 102 342 124 504 17 124 19 130 20 69 3 -163 60 -451 126 -634 35 -96
116 -277 121 -271 2 2 -7 34 -20 73 -42 123 -50 182 -49 339 0 127 4 165 26
246 27 105 72 217 59 149 -12 -58 -7 -202 8 -250 l14 -45 6 57 c5 59 20 91 20
44 0 -15 5 -36 10 -47 13 -24 61 -49 95 -49 25 0 25 -1 11 -22 -27 -38 -20
-95 14 -129 27 -27 27 -30 7 -23 -12 3 -38 16 -57 27 l-35 20 35 -37 c39 -41
106 -87 163 -111 l37 -15 0 60 c0 52 -2 59 -17 54 -17 -5 -17 -5 0 9 15 13 17
35 17 191 0 97 -4 176 -9 176 -5 0 -22 -15 -38 -33 l-30 -34 -16 29 c-20 35
-60 51 -107 44 l-35 -5 30 24 c38 31 113 49 167 40 l43 -7 -27 28 c-15 16 -34
46 -42 66 -18 42 -22 153 -6 143 6 -3 10 -14 10 -24 0 -17 39 -61 53 -61 4 0
7 43 7 96 0 65 -3 93 -11 89 -6 -4 -5 2 2 13 7 12 10 24 7 28 -13 12 -118 -45
-170 -93 -29 -26 -46 -39 -38 -28 43 59 114 135 158 170 l51 40 1 398 0 397
-181 0 -180 0 -36 -77 c-84 -184 -158 -455 -184 -673 -6 -52 -13 -97 -15 -99
-2 -2 -4 27 -4 65 -1 187 -80 537 -166 732 l-23 52 -544 0 -543 0 -18 -57
c-44 -141 -142 -289 -273 -414 -54 -51 -89 -89 -78 -84 71 30 221 76 280 85
88 14 250 14 338 0 258 -41 497 -184 663 -395 l39 -50 -49 43 c-61 52 -176
110 -236 118 l-45 5 40 -19 c22 -10 45 -25 52 -33 9 -12 4 -13 -31 -11 -34 3
-48 -1 -74 -23 -18 -15 -32 -34 -32 -43 0 -11 -7 -6 -18 13 -33 54 -79 73
-128 55 -25 -10 -26 -9 -13 6 8 10 32 26 54 36 l40 19 -35 -7 c-19 -3 -59 -15
-87 -26 -133 -49 -264 -200 -289 -333 -9 -47 -20 -44 -28 8 -19 125 -128 263
-260 327 -44 22 -99 42 -121 45 l-40 6 40 -21 c22 -11 49 -30 60 -41 l20 -21
-22 11 c-49 25 -110 7 -142 -43 l-18 -28 -7 25 c-11 46 -77 71 -136 54 -24 -8
-25 -8 -5 9 11 9 38 25 60 35 49 23 36 24 -36 3 -75 -22 -126 -49 -184 -98
l-50 -41 31 40 c36 45 143 149 189 183 29 21 27 21 -27 -3 -75 -32 -219 -72
-288 -80 l-55 -6 58 21 c95 34 200 109 229 165 10 18 9 18 -13 -2 -21 -19 -87
-53 -104 -53 -4 0 7 12 24 26 38 32 49 81 28 123 l-15 31 32 0 c40 0 82 31
101 74 l13 31 2 -55 2 -55 13 40 c17 49 19 206 4 260 -6 22 -22 64 -36 93
l-24 52 -93 0 -93 0 -12 -54 c-8 -35 -24 -68 -47 -95 -35 -40 -35 -41 -9 -31
60 23 139 10 202 -33 35 -24 45 -44 14 -27 -44 23 -99 4 -132 -46 -13 -19 -19
-24 -19 -12 0 9 -14 28 -32 43 -25 22 -40 26 -74 23 -23 -1 -40 1 -37 6 4 5
-5 6 -20 2 l-25 -6 29 29 c23 23 29 38 29 72 0 25 -7 50 -17 61 -15 17 -14 18
25 18 29 0 49 7 69 25 l28 24 -92 1 c-70 0 -91 -3 -88 -12 4 -9 -5 -13 -24
-13 -19 0 -27 4 -24 13 4 8 -7 12 -36 12 -37 0 -41 -2 -41 -25z m352 -366 c16
-25 16 -25 -12 -21 -26 4 -28 6 -18 28 6 13 12 23 13 22 0 -2 8 -15 17 -29z
m183 -569 c21 -23 80 -44 96 -35 6 4 4 -7 -5 -23 -24 -46 -20 -86 12 -123 22
-27 23 -32 8 -26 -19 7 -19 7 -4 -10 16 -17 14 -18 -33 -15 -46 4 -52 1 -84
-33 -19 -20 -35 -30 -35 -22 0 19 -40 54 -72 62 -15 4 -42 2 -60 -4 l-33 -11
30 25 c45 38 125 59 180 47 l44 -9 -33 38 c-49 57 -68 140 -49 209 7 23 8 22
14 -12 3 -21 14 -47 24 -58z m395 -63 c-6 -20 -25 -54 -43 -74 -30 -34 -30
-35 -7 -28 67 21 175 -1 213 -43 14 -16 12 -17 -28 -14 -48 4 -90 -17 -101
-50 -5 -18 -8 -17 -35 16 -34 40 -83 55 -120 35 -23 -11 -23 -11 -9 6 14 17
13 17 -10 10 l-25 -7 23 24 c30 33 39 90 19 122 -16 23 -15 24 25 29 47 6 84
37 95 81 7 29 8 28 11 -19 2 -27 -2 -67 -8 -88z m984 20 c-4 -30 -18 -66 -38
-96 l-33 -48 40 9 c68 15 160 -14 202 -63 11 -13 13 -18 5 -11 -39 34 -139 2
-156 -50 -6 -20 -7 -19 -19 10 -22 51 -90 76 -138 50 -20 -10 -21 -9 -9 5 11
13 10 15 -8 10 -20 -5 -20 -4 4 22 30 32 36 97 11 131 -13 20 -13 21 12 16 53
-10 112 42 114 101 1 18 2 16 10 -8 5 -16 7 -52 3 -78z m-387 7 c10 -7 34 -14
54 -14 l36 0 -19 -40 c-17 -34 -18 -44 -8 -75 6 -19 21 -42 33 -51 19 -14 19
-16 3 -10 -19 7 -19 6 -2 -13 18 -20 18 -20 -11 -12 -17 5 -42 7 -56 4 -31 -6
-77 -49 -77 -72 -1 -9 -7 -2 -15 16 -18 41 -67 67 -114 60 l-36 -6 30 24 c41
34 121 51 175 37 l42 -11 -30 32 c-47 50 -62 89 -62 159 l1 63 19 -39 c11 -21
27 -44 37 -52z m-787 34 c0 -5 -11 -8 -25 -8 -23 0 -24 2 -13 25 10 23 12 23
24 7 7 -9 14 -20 14 -24z m969 -5 c11 -21 10 -23 -19 -23 -30 0 -30 0 -14 25
9 14 18 24 19 23 1 -2 8 -13 14 -25z m-927 -395 c13 -10 40 -18 62 -18 37 0
38 -1 23 -18 -38 -42 -26 -124 20 -151 26 -15 8 -13 -30 3 -44 18 -113 96
-122 137 l-7 33 -19 -49 c-27 -70 -76 -118 -146 -139 -20 -7 -20 -4 7 23 34
34 39 74 14 122 -15 30 -15 31 5 24 36 -11 90 20 110 66 11 25 21 36 24 27 3
-7 6 -2 7 12 1 21 3 18 15 -15 8 -21 24 -47 37 -57z m392 -3 c-4 -23 -3 -26 5
-15 6 8 14 35 17 60 8 50 7 51 35 -55 l14 -50 5 60 5 60 17 -36 c20 -46 53
-69 97 -69 32 0 33 -1 18 -18 -27 -29 -22 -95 9 -131 l26 -31 -27 10 c-15 6
-42 20 -59 32 -25 17 -23 13 14 -25 24 -26 42 -47 40 -47 -3 0 -23 7 -45 15
-22 8 -49 14 -60 15 -16 0 -14 -4 10 -18 17 -11 36 -26 44 -36 13 -15 12 -16
-14 -6 -40 15 -80 4 -109 -31 l-24 -29 -35 35 c-38 38 -79 45 -120 23 -20 -10
-21 -10 -8 6 8 10 31 26 50 36 43 23 20 26 -38 5 l-42 -14 56 51 c58 52 68 75
18 40 -15 -11 -39 -24 -52 -27 l-25 -8 27 32 c30 37 36 93 13 126 -13 19 -11
20 27 21 32 0 45 6 68 32 16 18 29 45 30 60 1 25 2 24 10 -8 5 -19 6 -48 3
-65z m580 -12 c17 -15 40 -23 62 -23 34 0 35 -1 20 -22 -27 -38 -20 -95 14
-129 27 -27 27 -30 7 -24 -50 15 -102 61 -127 112 -26 54 -40 66 -40 35 0 -35
-58 -108 -109 -135 -63 -35 -71 -34 -37 2 22 23 29 40 29 71 0 23 -5 46 -12
53 -19 19 -12 27 25 27 45 0 94 45 95 87 0 24 1 25 9 8 7 -18 8 -17 16 10 l8
30 7 -39 c4 -25 17 -49 33 -63z m-781 30 c7 -10 2 -13 -22 -13 l-31 0 17 26
c12 19 18 22 21 13 3 -8 9 -20 15 -26z m-459 2 l16 -25 -35 0 -36 0 18 25 c10
13 19 25 19 25 1 0 9 -11 18 -25z m1429 -7 l17 -28 -36 0 c-35 0 -36 1 -21 18
10 10 17 25 17 32 0 15 0 15 23 -22z m-446 -20 c13 -14 11 -16 -20 -15 l-34 1
16 28 c9 15 18 22 20 15 2 -6 10 -19 18 -29z m1445 -99 c16 -25 16 -25 -16
-25 -32 1 -32 1 -17 28 9 15 16 26 16 25 1 -1 8 -14 17 -28z m-1923 -351 c19
-17 43 -28 61 -28 28 0 29 0 14 -27 -19 -38 -18 -72 6 -110 11 -18 17 -33 13
-33 -3 0 2 -10 13 -21 19 -22 19 -22 -3 -10 -42 22 -82 14 -121 -25 -24 -24
-38 -32 -41 -23 -2 7 -15 24 -28 37 -20 20 -32 23 -73 20 -45 -3 -48 -2 -33
14 28 31 98 51 162 46 l60 -4 -34 37 c-48 53 -63 115 -48 190 l7 34 7 -35 c4
-20 21 -47 38 -62z m386 -45 c-3 -18 -21 -53 -40 -77 -33 -44 -33 -45 -9 -36
61 24 151 6 204 -39 l35 -30 -31 11 c-45 16 -93 0 -120 -39 l-21 -32 -11 24
c-18 39 -56 58 -107 53 -28 -4 -42 -2 -39 4 4 6 -3 8 -17 4 -20 -6 -21 -5 -6
4 43 27 60 107 31 148 -15 22 -14 22 24 22 48 0 89 34 100 82 7 31 7 30 10
-17 2 -27 1 -64 -3 -82z m-203 67 c15 -25 15 -25 -18 -26 -31 0 -33 1 -19 16
8 9 15 23 15 30 0 15 0 15 22 -20z m68 -425 c18 -9 42 -15 54 -13 l22 4 -18
-35 c-21 -40 -17 -72 13 -113 25 -36 14 -35 -42 1 -48 30 -82 76 -95 125 l-7
30 -12 -41 c-17 -57 -49 -99 -99 -128 -51 -30 -74 -33 -46 -5 32 32 38 79 15
133 -6 14 -2 17 25 17 39 0 100 55 101 92 0 22 1 22 9 3 8 -18 9 -18 10 5 0
21 3 19 19 -17 12 -26 32 -48 51 -58z m173 28 c7 -10 2 -13 -22 -13 l-31 0 17
26 c12 19 18 22 21 13 3 -8 9 -20 15 -26z m-459 2 c16 -25 16 -25 -13 -25 -27
0 -28 1 -18 25 7 14 13 25 13 25 1 0 9 -11 18 -25z"/>
<path d="M2835 665 c45 -62 145 -184 156 -191 7 -4 9 5 7 22 -2 21 -28 53 -98
119 -63 60 -85 77 -65 50z"/>
<path d="M2178 373 c7 -3 16 -2 19 1 4 3 -2 6 -13 5 -11 0 -14 -3 -6 -6z"/>
<path d="M2470 365 c164 -26 339 -100 468 -197 l62 -47 0 79 0 79 -52 16 c-87
26 -286 63 -397 75 -140 14 -185 11 -81 -5z"/>
<path d="M1661 80 c-30 -11 -75 -33 -100 -50 l-46 -30 144 0 c143 0 144 0 126
20 -23 25 -79 36 -112 21 -45 -21 -8 14 40 38 54 27 21 27 -52 1z"/>
<path d="M1915 86 c17 -7 38 -23 49 -34 18 -21 18 -21 -10 -13 -34 9 -86 -3
-104 -24 -11 -13 4 -15 129 -15 77 0 141 2 141 5 0 20 -170 95 -213 95 -19 -1
-18 -3 8 -14z"/>
<path d="M2630 57 c-30 -13 -68 -31 -85 -40 -29 -16 -27 -16 93 -17 76 0 121
4 117 10 -10 16 -75 23 -103 10 -26 -11 -26 -11 -9 8 10 11 33 27 50 36 51 25
1 19 -63 -7z"/>
<path d="M2901 60 c19 -10 41 -26 49 -35 12 -14 10 -15 -15 -5 -30 11 -81 5
-90 -11 -4 -5 28 -9 74 -9 79 0 81 1 81 24 0 20 -8 27 -47 40 -67 23 -98 21
-52 -4z"/>
</g>
</svg>
